<?xml version="1.0" standalone="no"?><!DOCTYPE svg PUBLIC "-//W3C//DTD SVG 1.1//EN" "http://www.w3.org/Graphics/SVG/1.1/DTD/svg11.dtd"><svg t="1503556663469" class="icon" style="" viewBox="0 0 1024 1024" version="1.1" xmlns="http://www.w3.org/2000/svg" p-id="1433" xmlns:xlink="http://www.w3.org/1999/xlink" width="200" height="200"><defs><style type="text/css"></style></defs><path d="M139.776 230.912m-53.76 0a53.76 53.76 0 1 0 107.52 0 53.76 53.76 0 1 0-107.52 0Z" fill="#019477" p-id="1434"></path><path d="M366.592 269.312h571.392a38.4 38.4 0 0 0 0-76.8H366.592a38.4 38.4 0 0 0 0 76.8z" fill="#019477" p-id="1435"></path><path d="M139.776 512m-53.76 0a53.76 53.76 0 1 0 107.52 0 53.76 53.76 0 1 0-107.52 0Z" fill="#019477" p-id="1436"></path><path d="M937.984 473.6H366.592a38.4 38.4 0 0 0 0 76.8h571.392a38.4 38.4 0 0 0 0-76.8z" fill="#019477" p-id="1437"></path><path d="M139.776 793.088m-53.76 0a53.76 53.76 0 1 0 107.52 0 53.76 53.76 0 1 0-107.52 0Z" fill="#019477" p-id="1438"></path><path d="M937.984 754.688H366.592a38.4 38.4 0 0 0 0 76.8h571.392a38.4 38.4 0 0 0 0-76.8z" fill="#019477" p-id="1439"></path></svg>